<?xml version="1.0" encoding="UTF-8"?>
<svg id="Ikke_Brugt" xmlns="http://www.w3.org/2000/svg" version="1.1" viewBox="0 0 653.88 513.6">
  <!-- Generator: Adobe Illustrator 30.6.0, SVG Export Plug-In . SVG Version: 2.1.4 Build 109)  -->
  <defs>
    <style>
      .st0 {
        fill: none;
      }

      .st1 {
        fill: #878885;
      }

      .st2 {
        fill: #fdfdfd;
      }

      .st2, .st3, .st4 {
        display: none;
      }

      .st5 {
        fill: #818182;
      }

      .st3 {
        fill: #fefefe;
      }

      .st6 {
        fill: #000101;
      }

      .st7 {
        fill: #4487b1;
      }

      .st8 {
        fill: #f12631;
      }

      .st9 {
        fill: #4488b2;
      }

      .st10 {
        fill: #010202;
      }
    </style>
  </defs>
  <g id="Slice_List" class="st4">
    <rect id="_x3C_Slice_x3E_" class="st0" x="140.28" width="513.6" height="513.6"/>
  </g>
  <g id="Generative_Object">
    <path class="st2" d="M737.13,475.92h-187.52c.06-.15.21-.2.44-.23,2.1-.25,3.84-1.05,5.5-2.39l26.25-24.71,20.01-18.72c6.94,4.96,14.06,9.33,21.47,13.5l17.76,9.13,19.07,8.06c8.41,3.2,16.85,5.73,25.6,7.97,14.62,3.74,29.43,5.98,44.47,6.93l2.38.15,4.11.06c.26,0,.42.07.45.24Z"/>
    <path class="st3" d="M939.81,5.28c-3.05.3-5.42,1.93-7.69,4.08l-43.4,41.02-11.24-7.38c-9.64-5.94-19.45-11.28-29.86-15.85-27.79-12.67-58.3-20.04-88.72-21.51l-3.86-.13c-.2-.07-.19-.14,0-.23h184.76Z"/>
    <path class="st2" d="M546.85,475.92h-37.69v-36.54c.39,3.47,2.37,6.02,4.92,8.45l26.81,25.49c1.74,1.65,4,2.03,5.95,2.6Z"/>
    <path class="st3" d="M942.34,5.28h37.46v36.54c-.08-.02-.17-.09-.19-.26-.3-2.32-1.23-4.38-2.95-6.07l-27.09-26.6c-2.08-2.04-4.49-3.22-7.22-3.61Z"/>
    <g>
      <path class="st2" d="M979.8,45.73v430.19h-226.35c-.2-.07-.2-.15,0-.24l.19-.46c52.43-1.47,102.93-21.84,144.06-53.45,10.55-8.51,20.75-17.77,30.59-27.79,7.31-8.05,14-16.2,20.06-24.46,7.28-12.57-7.69-23.67-17.2-13.19-25.38,34.07-58.05,61.7-97.86,78.79-32.41,14.08-68.11,20.57-103.4,18.16-34.02-2.63-67.33-12.84-96.65-29.64-1.4-.8-14.52-8.43-14.78-9.48-.05-.21-.06-.41.05-.61,5.52-5.35,11.13-10.7,16.82-16.05l.54-.1c24.98,15.93,53.56,26.7,83.05,30.67,21.46,2.88,41.08,1.83,62.36-1.69,14.03-2.32,12.67-21.62-1.08-21.8-22.03,4.4-44.57,4.84-66.73.82-20.72-3.76-42.65-11.86-60.52-23.03-.38-.24-.51-.65-.32-1.06l16.72-16.04.55-.25c19.07,10.71,40.03,17.25,61.82,19.11,19.85,1.7,37.66-.56,56.72-6.1,5.36-1.56,8.13-7.86,6.87-13.05-1.29-5.27-6.42-8.8-11.81-7.9-31.42,9.82-66.06,7.56-95.68-7.14-.85-.23-1-.59-.87-1.27,19.51-18.5,38.88-36.78,58.1-54.83,22.78.03,42.68-14.87,50.37-36.05l65.51-27.44c1.8-.78,3.37-2.01,4.41-3.68l112.46-176.75c.7-1.26,1.18-2.61,1.43-4.04l.53-.18Z"/>
      <path d="M310.95,415.11c-5.82,2.29-12.1-.69-14.41-6.1s.15-12.26,5.94-14.64c14.34-5.91,27.87-13.31,40.37-22.53l10.31-8.08c4.34-3.4,10.33-3.58,14.41.12,5.54,5.03,4.81,13.7-1.05,18.07l-19.22,14.31c-11.49,7.45-23.48,13.79-36.35,18.85Z"/>
    </g>
    <g>
      <path class="st6" d="M242.45,5.28c1.16.09,2.31.17,3.44.23,19.85-.25,40.76,3.48,60.11,9.11,26.29,7.65,51.72,20.1,73.46,35.14l44.06-41.53c2.06-1.93,4.28-3.01,7.14-2.95h2.53c3-.01,5.45,1.15,7.54,3.28l27.53,27.05c1.77,1.77,2.19,3.83,2.39,6.21v3.91c-.44,1.37-.5,2.76-1.58,4.46l-17.19,27.12-33.59,52.8-49.88,78.3-11.8,18.54c-1.19,1.86-2.82,3.1-4.87,3.96l-65.24,27.28c-7.64,21.45-27.58,36.04-50.43,36.09l-8.1,7.69-19.64,18.5-30.3,28.67c8.43,4.02,16.92,7.42,25.98,9.68,15.62,3.89,31.78,4.76,47.72,2.78,7.36-.91,14.26-2.58,21.29-4.65s13.34,2.84,13.91,9.75c.41,4.97-2.49,10.22-7.47,11.79-39.06,12.31-83.2,7.36-118.71-13.07l-16.58,15.84c-.16.15-.29.25-.31.34-.03.14,0,.25.22.39,17.19,10.48,36.97,18.18,56.73,22.25,22.93,4.72,46.31,4.55,69.18.02,3.51-.7,6.93.76,9.29,3.12,3.25,3.26,4.05,7.99,2.42,12.3s-5.29,6.38-9.75,7.2c-36.12,6.64-71.71,3.41-106.1-9.47-13.53-5.06-26.4-11.36-38.48-19.15-.3-.19-.41-.37-.66-.43-.28-.06-.46.19-.73.44l-13.48,12.89-1.54,1.48-1.09,1.01c-.16.13-.21.32-.06.43l2.9,2.04c11.09,7.18,22.59,13.46,34.77,18.68l17.98,6.88c21.21,7.06,43.44,11.18,65.86,11.56,26.99.45,53.92-4.07,79.31-13.26,27.74-10.04,54.03-25.71,76.02-45.31l15.01-14.67c6.97-7.56,13.48-15.29,19.64-23.54,3.02-4.05,8.05-5.84,12.86-4.18s7.75,6.12,7.47,11.22c-.14,2.48-.89,4.78-2.4,6.75l-6.69,8.73c-7.68,10.02-16.31,19.07-25.6,27.67l-16.94,14.56c-9.24,7.24-18.83,13.8-28.94,19.74l-15.2,8.31c-16.93,8.69-34.73,15.26-53.27,19.77-14.04,3.41-28.32,5.61-42.71,6.43l-2.63.15-2.94.05c-1.36.09-2.74.17-4.14.24h-12.18c-48.32-.64-94.18-17.92-133.59-44.27l-1.62-1.25-46.07,43.25c-1.84,1.69-3.87,2.06-6.23,2.26h-2.76c-2.24-.02-4.2-.67-5.89-1.93l-27.41-26.04c-2.5-2.37-4.52-4.97-4.39-8.57l.09-3.46c.37-3.03,1.87-5.38,3.5-7.9l9.13-14.11,38.72-60.5,20.81-32.5,18.98-29.73,10.41-16.27,12.64-19.72c1.41-2.19,3.1-3.85,5.53-4.86l11.58-4.99,52.81-22.26c7.54-21.79,28.11-36.37,51.15-36.13l6.01-5.8,10.57-9.91,43.01-40.58c.2-.23-.02-.48-.29-.38-5.53-2.76-11.1-4.95-16.95-6.98-5.3-1.84-10.53-3.07-16.07-4.17-15.39-3.07-32.34-3.3-47.85-.71l-16.34,3.6c-4.84,1.07-9.74-1.09-12.06-5.42-1.66-3.11-1.77-6.88-.26-10.08,1.35-2.86,3.9-5.02,6.99-5.87,19.1-5.3,37.17-6.88,57-5.42,8.18.6,16.02,1.9,23.98,3.79,7.26,1.72,14.09,4.06,21.02,6.75l13.84,6.35,4.09,2.35,17.14-16.2c.22-.13.36-.23.25-.38-.06-.09-.13-.17-.34-.29-17.98-10.62-37.59-18.21-58.23-22.17s-43.8-4.35-65.43-.76c-25.95,4.31-51.09,14.39-72.63,29.4-4.88,3.4-9.45,6.78-14.01,10.6-3.41,2.87-8.08,3.8-12.2,1.86-2.55-1.2-4.64-3.28-5.72-6.01-1.4-3.53-1.01-8.42,1.85-11.22,5.22-5.11,11.09-9.14,17.08-13.28,8.77-6.06,17.9-11.26,27.49-15.91,13.02-6.31,27.04-11.08,41.11-14.49,17.82-4.32,36.81-5.85,55.22-5.24,16.48.55,32.62,3.01,48.48,7.48,14.48,4.09,28.43,9.65,41.65,16.74l12.62,7.49,7.12-6.89,9.53-9.08c-7.99-5.31-16-10.15-24.47-14.44l-16.36-7.59c-13.49-5.54-27.57-9.96-41.94-12.77-16.06-3.14-32.19-4.6-48.6-4.21-18.25.44-35.53,2.75-53.16,7.31-11.49,2.97-22.4,6.96-33.21,11.78-5.22,2.33-10.16,4.7-15.15,7.38-5.68,3.05-12.51,1.12-15.4-4.54s-.62-12.11,5.01-15.09c7.11-3.76,14.24-7.12,21.73-10.19,26.56-10.85,51.47-16.19,80.02-18.03l2.37-.15,5.28-.19,13.31-.11Z"/>
      <g>
        <path class="st1" d="M244.29,475.68v.24h-4.14c-.01-.1.08-.22.24-.22l3.9-.02Z"/>
        <path class="st5" d="M245.89,5.28v.23s-3,.02-3,.02c-.25,0-.42-.1-.44-.24h3.45Z"/>
        <path class="st7" d="M266.29,188.46l16.84-15.89,31.57-29.72,4.51-4.28,4.36-4.14,4.14-3.91,4.82-4.59,4.59-4.37,5.2-4.97,48.68-46.12,4.5-4.29,4.62-4.4,31.54-29.72,3.18,3.06,10.41,10.1-9.11,14.53-45.88,72.19-40.18,62.97-10.55,16.67-27.47,11.53-22.68,9.47-.4.18c-.08.04-.15-.24-.18-.4-.87-5.97-2.8-11.54-5.59-16.88s-6.57-10.32-11.19-14.57c-3.19-2.94-6.68-5.29-10.41-7.5-.14-.08-.26-.16-.26-.26,0-.07.14-.19.23-.28l4.71-4.41Z"/>
        <path class="st9" d="M130.83,362.81l-4.65,4.42-4.51,4.28-32.37,30.53-22.65,21.26-27.26,25.69-2.66-2.44-4.9-4.75-5.92-5.76,10.26-16.14,43.75-68.57,30.13-47.3,22.04-34.55,19.81-8.4,16.8-7.11,13.2-5.59c.38,3.74,1.39,7.2,2.72,10.78,2.99,8.07,7.66,15.1,14,20.92,3.28,3.18,6.98,5.58,10.96,7.97-.53,1.02-1.44,1.59-2.34,2.44l-31.76,29.96-4.51,4.28-4.36,4.14-4.59,4.37-5.06,4.82-4.6,4.37-4.59,4.38-4.72,4.47-4.02,3.79-3.8,3.57-4.41,4.2Z"/>
        <circle class="st8" cx="235.35" cy="240.58" r="31.44"/>
      </g>
    </g>
    <g>
      <path class="st3" d="M738.3,5.4l-.25.47c-37.79.88-75.54,10.82-109.45,28.77-5.26,2.78-6.98,9.6-4.05,14.69s8.95,6.57,14,4.11c36.32-19.76,77.73-28.72,119.07-26.54,41.3,2.17,79.87,15.77,113.73,38.12,1.02.35,1.23.79.99,1.58l-16.3,15.64-.67.23c-29.42-18.65-64.14-29.79-99.93-31.52-40.23-1.94-79.06,7.23-113.86,27.6-9.98,5.84-21.26,13.23-29.55,21.26-3.5,3.4-2.76,10.08.28,13.58,3.66,4.21,9.65,4.87,14.24,1.78,28.89-24.44,64.26-39.37,102.08-42.74,38.39-3.42,77,5.1,110.07,24.92.33.25.43.62.25,1l-17.22,16.28c-.3.29-.61.31-.97.13-34.54-19.68-78.72-24.97-118.26-13.94-13.3,3.08-10.99,22.04,3.2,20.92l17.17-3.74c27.65-4.54,56.51-.43,81.51,12.04l.21.64c-20.19,19.27-40.17,38.17-59.94,56.72-22.96-.29-43.47,14.52-51.05,36.08-21.8,9.18-43.37,18.33-64.7,27.43-2.15.93-3.82,2.6-5.06,4.57-37.21,58.19-74.66,116.71-112.36,175.56l-1.34,3.04c-.08.84-.37,1.47-.87,1.89l-.09-430.64,229.13.11Z"/>
      <path class="st10" d="M51.55,122.19c-2.2,3.32-5.62,5.25-9.39,5.26s-7.42-1.89-9.5-5.25-2.54-7.57-.43-10.96c4.19-6.73,9.06-12.81,14.2-18.86,7.45-8.78,15.58-16.66,24.04-24.41,4.13-3.78,10.22-4.58,14.68-1.02,5.47,4.35,5.83,12.47.5,17.16-9.42,8.28-18.06,17.24-25.88,27.11-2.88,3.64-5.62,7.04-8.22,10.98Z"/>
    </g>
  </g>
</svg>